<mxfile host="app.diagrams.net" agent="Mozilla/5.0 (Windows NT 10.0; Win64; x64) AppleWebKit/537.36 (KHTML, like Gecko) Chrome/127.0.0.0 Safari/537.36" version="24.7.6">
  <diagram name="PÃ¡gina-1" id="tjdAhNp8Tf4jcQL1_tRD">
    <mxGraphModel dx="1799" dy="944" grid="0" gridSize="6" guides="1" tooltips="1" connect="1" arrows="1" fold="1" page="1" pageScale="1" pageWidth="1169" pageHeight="827" background="#000000" math="0" shadow="0">
      <root>
        <mxCell id="0" />
        <mxCell id="1" parent="0" />
        <mxCell id="vzibz0AQZVTIqVIJQ36B-57" value="" style="rounded=1;whiteSpace=wrap;html=1;fillColor=none;strokeWidth=4;strokeColor=#FFFFFF;dashed=1;" vertex="1" parent="1">
          <mxGeometry x="46" y="91" width="2060" height="567" as="geometry" />
        </mxCell>
        <mxCell id="vzibz0AQZVTIqVIJQ36B-58" value="" style="verticalLabelPosition=bottom;html=1;verticalAlign=top;align=center;strokeColor=none;fillColor=#00BEF2;shape=mxgraph.azure.mobile;pointerEvents=1;" vertex="1" parent="1">
          <mxGeometry x="163" y="237" width="35" height="50" as="geometry" />
        </mxCell>
        <mxCell id="vzibz0AQZVTIqVIJQ36B-59" value="" style="verticalLabelPosition=bottom;html=1;verticalAlign=top;align=center;strokeColor=none;fillColor=#00BEF2;shape=mxgraph.azure.computer;pointerEvents=1;" vertex="1" parent="1">
          <mxGeometry x="158" y="347" width="50" height="45" as="geometry" />
        </mxCell>
        <mxCell id="vzibz0AQZVTIqVIJQ36B-62" value="" style="endArrow=none;dashed=1;html=1;rounded=0;strokeColor=#FFFFFF;fontColor=#393C56;fillColor=#F2CC8F;strokeWidth=2;" edge="1" parent="1">
          <mxGeometry width="50" height="50" relative="1" as="geometry">
            <mxPoint x="331" y="620.5" as="sourcePoint" />
            <mxPoint x="331" y="103" as="targetPoint" />
          </mxGeometry>
        </mxCell>
        <mxCell id="vzibz0AQZVTIqVIJQ36B-63" value="" style="endArrow=none;dashed=1;html=1;dashPattern=1 3;strokeWidth=2;rounded=0;" edge="1" parent="1">
          <mxGeometry width="50" height="50" relative="1" as="geometry">
            <mxPoint x="472" y="346" as="sourcePoint" />
            <mxPoint x="522" y="296" as="targetPoint" />
          </mxGeometry>
        </mxCell>
        <mxCell id="vzibz0AQZVTIqVIJQ36B-64" value="" style="endArrow=none;dashed=1;html=1;dashPattern=1 3;strokeWidth=2;rounded=0;" edge="1" parent="1">
          <mxGeometry width="50" height="50" relative="1" as="geometry">
            <mxPoint x="472" y="346" as="sourcePoint" />
            <mxPoint x="522" y="296" as="targetPoint" />
          </mxGeometry>
        </mxCell>
        <mxCell id="vzibz0AQZVTIqVIJQ36B-65" value="" style="endArrow=none;html=1;rounded=0;" edge="1" parent="1">
          <mxGeometry width="50" height="50" relative="1" as="geometry">
            <mxPoint x="472" y="346" as="sourcePoint" />
            <mxPoint x="522" y="296" as="targetPoint" />
          </mxGeometry>
        </mxCell>
        <mxCell id="vzibz0AQZVTIqVIJQ36B-67" value="" style="endArrow=none;html=1;rounded=0;" edge="1" parent="1">
          <mxGeometry width="50" height="50" relative="1" as="geometry">
            <mxPoint x="472" y="346" as="sourcePoint" />
            <mxPoint x="522" y="296" as="targetPoint" />
          </mxGeometry>
        </mxCell>
      </root>
    </mxGraphModel>
  </diagram>
</mxfile>
